<?xml version="1.0" encoding="UTF-8"?>
<svg id="Camada_1" xmlns="http://www.w3.org/2000/svg" version="1.1" viewBox="0 0 1080 200">
  <!-- Generator: Adobe Illustrator 30.0.0, SVG Export Plug-In . SVG Version: 2.1.1 Build 123)  -->
  <defs>
    <style>
      .st0 {
        fill: #fd5d20;
      }

      .st1 {
        fill: #fff;
      }

      .st2 {
        fill: #f60;
      }
    </style>
  </defs>
  <polygon class="st0" points="54.89 28.56 77.93 48.03 77.93 95.84 27.54 95.84 7.78 73.22 54.89 73.22 54.89 28.56"/>
  <polygon class="st0" points="54.89 92.68 77.93 112.15 77.93 159.97 27.54 159.97 7.78 137.35 54.89 137.35 54.89 92.68"/>
  <polygon class="st0" points="124.75 28.56 147.79 48.03 147.79 95.84 97.4 95.84 77.64 73.22 124.75 73.22 124.75 28.56"/>
  <polygon class="st0" points="124.75 92.68 147.79 112.15 147.79 159.97 97.4 159.97 77.64 137.35 124.75 137.35 124.75 92.68"/>
  <path class="st1" d="M968.77,171.89v-15.46h37.94c2.62,0,3.93-1.41,3.93-4.22v-17.57h-2.53c-.75,1.59-1.92,3.19-3.51,4.78-1.59,1.59-3.75,2.9-6.46,3.93s-6.18,1.55-10.4,1.55c-5.43,0-10.21-1.22-14.33-3.65-4.03-2.53-7.17-6-9.42-10.4-2.25-4.4-3.37-9.46-3.37-15.18v-41.59h17.71v40.19c0,5.25,1.26,9.18,3.79,11.8,2.62,2.62,6.32,3.93,11.1,3.93,5.43,0,9.65-1.78,12.65-5.34,3-3.65,4.5-8.71,4.5-15.18v-35.41h17.71v82.07c0,4.78-1.41,8.57-4.22,11.38-2.81,2.9-6.56,4.36-11.24,4.36h-43.84ZM906.59,131.42c4.97,0,8.99-1.36,12.09-4.08,3.19-2.81,4.78-6.51,4.78-11.1v-1.41h-17.85c-3.28,0-5.86.7-7.73,2.11s-2.81,3.37-2.81,5.9.98,4.59,2.95,6.18,4.82,2.39,8.57,2.39ZM903.5,145.75c-4.97,0-9.42-.84-13.35-2.53-3.93-1.78-7.07-4.31-9.42-7.59-2.25-3.37-3.37-7.45-3.37-12.23s1.12-8.76,3.37-11.94c2.34-3.28,5.53-5.71,9.56-7.31,4.12-1.69,8.81-2.53,14.05-2.53h19.11v-3.93c0-3.28-1.03-5.95-3.09-8.01-2.06-2.15-5.34-3.23-9.84-3.23s-7.68,1.03-9.84,3.09c-2.15,1.97-3.56,4.54-4.22,7.73l-16.3-5.48c1.12-3.56,2.9-6.79,5.34-9.7,2.53-3,5.86-5.39,9.98-7.17,4.22-1.87,9.32-2.81,15.32-2.81,9.18,0,16.44,2.3,21.78,6.89,5.34,4.59,8.01,11.24,8.01,19.95v26c0,2.81,1.31,4.22,3.93,4.22h5.62v14.61h-11.8c-3.47,0-6.32-.84-8.57-2.53s-3.37-3.93-3.37-6.75v-.14h-2.67c-.37,1.12-1.22,2.62-2.53,4.5-1.31,1.78-3.37,3.37-6.18,4.78-2.81,1.41-6.65,2.11-11.52,2.11ZM816.27,90.95h20.09c4.4,0,7.96-1.22,10.68-3.65,2.72-2.44,4.08-5.76,4.08-9.98v-1.41c0-4.22-1.36-7.54-4.08-9.98-2.72-2.44-6.28-3.65-10.68-3.65h-20.09v28.67ZM797.72,143.78V45.42h40.47c6.18,0,11.62,1.26,16.3,3.79,4.78,2.44,8.48,5.9,11.1,10.4,2.72,4.5,4.08,9.84,4.08,16.02v1.97c0,6.09-1.41,11.43-4.22,16.02-2.72,4.5-6.46,8.01-11.24,10.54-4.68,2.44-10.02,3.65-16.02,3.65h-21.92v35.97h-18.55ZM679.21,143.78v-68.72h10.82v8.57h1.97c1.31-2.44,3.47-4.68,6.46-6.75,3-2.06,7.21-3.09,12.65-3.09s9.65,1.17,12.93,3.51c3.37,2.34,5.81,5.2,7.31,8.57h1.97c1.59-3.37,3.98-6.23,7.17-8.57,3.28-2.34,7.82-3.51,13.63-3.51,4.59,0,8.62.94,12.09,2.81,3.47,1.87,6.18,4.59,8.15,8.15,2.06,3.47,3.09,7.64,3.09,12.51v46.51h-11.1v-45.53c0-4.59-1.36-8.2-4.08-10.82-2.62-2.72-6.32-4.08-11.1-4.08-5.06,0-9.23,1.64-12.51,4.92-3.19,3.28-4.78,8.01-4.78,14.19v41.31h-11.1v-45.53c0-4.59-1.36-8.2-4.08-10.82-2.62-2.72-6.32-4.08-11.1-4.08-5.06,0-9.23,1.64-12.51,4.92-3.19,3.28-4.78,8.01-4.78,14.19v41.31h-11.1ZM619.45,145.05c-4.97,0-9.56-1.08-13.77-3.23-4.12-2.15-7.4-5.34-9.84-9.56-2.34-4.31-3.51-9.51-3.51-15.6v-41.59h11.1v40.75c0,6.84,1.69,11.8,5.06,14.9,3.47,3.09,8.1,4.64,13.91,4.64,6.56,0,11.94-2.15,16.16-6.46,4.22-4.31,6.32-10.73,6.32-19.25v-34.57h11.1v68.72h-10.82v-11.66h-1.97c-1.5,3.28-4.08,6.28-7.73,8.99-3.65,2.62-8.99,3.93-16.02,3.93ZM553.83,143.78c-3.93,0-6.98-1.08-9.13-3.23-2.06-2.15-3.09-5.11-3.09-8.85v-46.93h-20.66v-9.7h20.66v-24.45h11.1v24.45h22.48v9.7h-22.48v45.25c0,2.81,1.36,4.22,4.08,4.22h15.32v9.56h-18.27ZM444.28,143.78v-68.72h10.82v11.66h1.97c1.5-3.28,4.03-6.23,7.59-8.85,3.65-2.72,8.99-4.08,16.02-4.08,5.15,0,9.74,1.08,13.77,3.23,4.12,2.15,7.4,5.34,9.84,9.56,2.44,4.22,3.65,9.41,3.65,15.6v41.59h-11.1v-40.75c0-6.84-1.73-11.8-5.2-14.9-3.37-3.09-7.96-4.64-13.77-4.64-6.65,0-12.09,2.15-16.3,6.46-4.12,4.31-6.18,10.73-6.18,19.25v34.57h-11.1ZM385.79,136.2c6.56,0,11.85-1.92,15.88-5.76,4.12-3.93,6.18-9.42,6.18-16.44v-1.55h-22.76c-4.4,0-8.06.98-10.96,2.95-2.81,1.87-4.22,4.73-4.22,8.57s1.45,6.84,4.36,8.99c3,2.15,6.84,3.23,11.52,3.23ZM384.53,145.75c-4.78,0-9.13-.84-13.07-2.53s-7.03-4.12-9.27-7.31-3.37-7.07-3.37-11.66,1.12-8.53,3.37-11.52c2.25-3.09,5.34-5.39,9.27-6.89,3.93-1.59,8.34-2.39,13.21-2.39h23.19v-5.06c0-4.87-1.45-8.71-4.36-11.52-2.81-2.81-7.03-4.22-12.65-4.22s-9.84,1.36-12.93,4.08c-3.09,2.62-5.2,6.18-6.32,10.68l-10.4-3.37c1.12-3.84,2.9-7.31,5.34-10.4,2.44-3.19,5.67-5.71,9.7-7.59,4.12-1.97,9.04-2.95,14.75-2.95,8.81,0,15.64,2.3,20.52,6.89,4.87,4.5,7.31,10.87,7.31,19.11v31.06c0,2.81,1.31,4.22,3.93,4.22h6.32v9.42h-9.7c-3.09,0-5.57-.84-7.45-2.53-1.87-1.78-2.81-4.12-2.81-7.03v-.7h-1.69c-1.03,1.78-2.44,3.65-4.22,5.62-1.69,1.87-4.03,3.42-7.03,4.64-3,1.31-6.89,1.97-11.66,1.97ZM303.68,145.05c-4.97,0-9.56-1.08-13.77-3.23-4.12-2.15-7.4-5.34-9.84-9.56-2.34-4.31-3.51-9.51-3.51-15.6v-41.59h11.1v40.75c0,6.84,1.69,11.8,5.06,14.9,3.47,3.09,8.1,4.64,13.91,4.64,6.56,0,11.94-2.15,16.16-6.46,4.22-4.31,6.32-10.73,6.32-19.25v-34.57h11.1v68.72h-10.82v-11.66h-1.97c-1.5,3.28-4.08,6.28-7.73,8.99-3.65,2.62-8.99,3.93-16.02,3.93ZM224.43,166.55c-3.47,0-6.28-1.08-8.43-3.23-2.06-2.06-3.09-4.92-3.09-8.57v-10.96h11.52v8.85c0,2.81,1.31,4.22,3.93,4.22h9.27v9.7h-13.21ZM218.67,135.21c8.53,0,15.13-2.53,19.81-7.59,4.68-5.15,7.03-12.27,7.03-21.36v-23.33c0-9.09-2.34-16.16-7.03-21.22-4.68-5.15-11.29-7.73-19.81-7.73s-14.99,2.58-19.67,7.73c-4.68,5.06-7.03,12.13-7.03,21.22v23.33c0,9.09,2.34,16.21,7.03,21.36,4.68,5.06,11.24,7.59,19.67,7.59ZM218.67,145.75c-11.71,0-21.08-3.37-28.1-10.12-6.93-6.84-10.4-16.77-10.4-29.79v-22.48c0-13.02,3.47-22.91,10.4-29.65,7.03-6.84,16.39-10.26,28.1-10.26s21.17,3.42,28.1,10.26c7.03,6.75,10.54,16.63,10.54,29.65v22.48c0,13.02-3.51,22.95-10.54,29.79-6.93,6.75-16.3,10.12-28.1,10.12Z"/>
  <path class="st2" d="M1058.87,145.75c-3.75,0-6.93-1.22-9.56-3.65-2.53-2.53-3.79-5.76-3.79-9.7s1.26-7.12,3.79-9.56c2.62-2.53,5.81-3.79,9.56-3.79s7.03,1.26,9.56,3.79c2.53,2.44,3.79,5.62,3.79,9.56s-1.26,7.17-3.79,9.7c-2.53,2.44-5.71,3.65-9.56,3.65Z"/>
</svg>